#!OML:ASF C:\ViconDB\ViconDB\414\Spring2016\042216\male.ASF
:FULLY-SPECIFIED
:DEGREES
919
root 12.7773 17.7108 4.01539 -178.465 67.9051 -179.292
lowerback -1.96417 -1.78474 1.89265
upperback 0.16742 -2.41139 -0.957496
thorax 1.15255 -1.19001 -2.10993
lowerneck -0.22392 11.2632 -1.32182
upperneck 1.6673 15.1002 -2.30393
head 0.632004 7.5347 -0.388456
rclavicle 3.93167e-014 -1.98785e-015
rhumerus -26.9716 -5.04375 -95.8847
rradius 26.9944
rwrist 41.1726
rhand 14.3502 -14.2166
rfingers 7.12502
rthumb 39.2396 -39.6676
lclavicle 3.93167e-014 -1.98785e-015
lhumerus -36.8028 11.5773 87.9475
lradius 32.3844
lwrist -13.7227
lhand -6.80042 12.5861
lfingers 7.12502
lthumb 19.0628 41.6719
rfemur -8.19963 9.99301 11.7579
rtibia 15.4978
rfoot -10.6871 -10.2516
rtoes -10.6124
lfemur -0.988948 -3.50555 -19.7577
ltibia 10.4935
lfoot -19.2872 13.0595
ltoes -10.6254
920
root 12.7591 17.7105 4.00501 -178.201 68.2174 -179.037
lowerback -1.53988 -1.89767 1.70228
upperback -0.161 -2.55084 -0.852781
thorax 0.584335 -1.27003 -1.87567
lowerneck 0.22738 11.4446 -1.32865
upperneck 1.6484 15.3362 -2.34783
head 0.558523 7.65735 -0.427576
rclavicle 4.45938e-014 -1.23246e-014
rhumerus -27.4814 -4.68095 -95.8863
rradius 27.0531
rwrist 41.06
rhand 14.0121 -14.4391
rfingers 7.12502
rthumb 38.9209 -39.9818
lclavicle 4.45938e-014 -1.23246e-014
lhumerus -37.4319 12.0838 87.5247
lradius 32.3991
lwrist -13.8414
lhand -6.18382 12.2448
lfingers 7.12502
lthumb 19.6556 41.2712
rfemur -8.58913 8.91347 12.2515
rtibia 16.5213
rfoot -11.2375 -10.2484
rtoes -10.1926
lfemur -1.15311 -3.53163 -19.7267
ltibia 10.764
lfoot -19.3468 13.3702
ltoes -10.505
921
root 12.7416 17.7076 3.99226 -177.952 68.5564 -178.778
lowerback -1.43797 -1.91679 1.7061
upperback -0.259289 -2.57418 -0.862245
thorax 0.424928 -1.28408 -1.88167
lowerneck 0.533551 11.5384 -1.30297
upperneck 1.48521 15.453 -2.4555
head 0.471327 7.72044 -0.486856
rclavicle 6.61627e-014 1.19271e-015
rhumerus -27.7108 -4.49157 -95.9554
rradius 27.1836
rwrist 40.2767
rhand 13.7197 -14.6964
rfingers 7.12502
rthumb 38.6452 -40.3172
lclavicle 6.61627e-014 1.19271e-015
lhumerus -37.638 11.9946 87.3718
lradius 32.2883
lwrist -13.3098
lhand -6.67058 12.6423
lfingers 7.12502
lthumb 19.1876 41.7158
rfemur -8.98907 7.50606 12.7815
rtibia 17.5807
rfoot -11.4938 -9.59057
rtoes -10.078
lfemur -1.27109 -3.63453 -19.7074
ltibia 11.0068
lfoot -19.4134 13.7651
ltoes -10.4343
922
root 12.7277 17.7055 3.97924 -177.651 68.929 -178.405
lowerback -1.454 -1.89595 1.79965
upperback -0.232177 -2.54825 -0.874643
thorax 0.458194 -1.27049 -1.94754
lowerneck 0.695459 11.6115 -1.3422
upperneck 1.29594 15.5435 -2.57314
head 0.395156 7.76917 -0.532318
rclavicle 7.61252e-014 5.96354e-015
rhumerus -27.7177 -4.08314 -96.0925
rradius 27.1481
rwrist 38.7652
rhand 13.2233 -15.0683
rfingers 7.12502
rthumb 38.1768 -40.8192
lclavicle 7.61252e-014 5.96354e-015
lhumerus -37.631 12.4387 86.9971
lradius 31.9536
lwrist -13.6568
lhand -6.84168 13.0229
lfingers 7.12502
lthumb 19.0231 42.1126
rfemur -9.29957 6.28192 13.3735
rtibia 18.624
rfoot -11.9699 -8.68995
rtoes -9.86179
lfemur -1.30108 -3.84292 -19.6615
ltibia 11.2476
lfoot -19.5156 14.2902
ltoes -10.3438
923
root 12.7185 17.7024 3.96808 -177.375 69.3151 -178.036
lowerback -1.50252 -1.87699 1.89588
upperback -0.196886 -2.52516 -0.92173
thorax 0.516314 -1.25781 -2.0519
lowerneck 0.822408 11.7127 -1.32499
upperneck 1.19625 15.6732 -2.61577
head 0.350491 7.83628 -0.558565
rclavicle 6.77576e-014 1.31198e-014
rhumerus -27.7247 -3.84839 -96.197
rradius 27.1573
rwrist 37.555
rhand 13.0764 -15.4587
rfingers 7.12502
rthumb 38.038 -41.2476
lclavicle 6.77576e-014 1.31198e-014
lhumerus -37.6648 12.5456 86.6615
lradius 31.8034
lwrist -13.8461
lhand -6.8098 13.6018
lfingers 7.12502
lthumb 19.0537 42.6885
rfemur -9.55579 5.177 13.9716
rtibia 19.5978
rfoot -12.358 -7.68567
rtoes -10.2154
lfemur -1.30176 -3.98627 -19.6097
ltibia 11.5125
lfoot -19.6242 14.8035
ltoes -10.4881
924
root 12.709 17.703 3.96088 -176.965 69.6637 -177.635
lowerback -1.61292 -1.83428 1.99282
upperback -0.205373 -2.47153 -0.931968
thorax 0.56753 -1.23022 -2.11972
lowerneck 1.1023 11.8199 -1.29466
upperneck 0.927992 15.8064 -2.84525
head 0.246987 7.90914 -0.656768
rclavicle -3.37981e-014 -3.18055e-015
rhumerus -27.7362 -3.56186 -96.2118
rradius 27.1511
rwrist 36.0645
rhand 13.2481 -15.5471
rfingers 7.12502
rthumb 38.2001 -41.2916
lclavicle -3.37981e-014 -3.18055e-015
lhumerus -37.7523 12.776 86.3027
lradius 31.6235
lwrist -14.0848
lhand -6.6113 13.4026
lfingers 7.12502
lthumb 19.2446 42.4704
rfemur -9.8709 4.33003 14.5517
rtibia 20.4798
rfoot -12.7837 -6.57082
rtoes -9.9576
lfemur -1.46528 -4.12444 -19.5212
ltibia 11.83
lfoot -19.7862 15.2368
ltoes -10.297
